#!OML:ASF X:\2005_08_12_Meinard\c3d\meinard.ASF
:FULLY-SPECIFIED
:DEGREES
1243
root 3.48613 16.3555 -0.680944 -1.28732 -77.2766 -16.6902
lowerback 32.661 1.53499 0.46885
upperback 6.54673 1.66265 1.4943
thorax -9.59187 0.498179 0.759998
lowerneck -16.3353 -1.76101 -1.17946
upperneck 4.93409 -2.66217 5.33529
head 4.19621 -1.03469 1.62558
rclavicle -2.23633e-015 -1.47101e-014
rhumerus -26.0524 8.13771 -88.9371
rradius 42.8794
rwrist 13.957
rhand -4.72123 -5.24688
rfingers 7.12502
rthumb 21.0612 -34.1231
lclavicle -2.23633e-015 -1.47101e-014
lhumerus -40.7503 31.3198 67.5098
lradius 34.1659
lwrist -221.526
lhand -14.1714 8.38434
lfingers 7.12502
lthumb 11.9638 38.0225
rfemur -176.65 -175.418 204.921
rtibia 43.6506
rfoot 153.537 162.126
rtoes 5.61614
lfemur -1.71754 5.56421 -19.9796
ltibia 48.6077
lfoot -24.1418 27.4336
ltoes 13.7031
1244
root 3.48561 16.3449 -0.691039 -2.24143 -76.979 -15.7682
lowerback 32.9143 1.56963 0.266301
upperback 6.5661 1.63653 1.51028
thorax -9.67661 0.487046 0.892748
lowerneck -16.586 -1.44148 -1.20796
upperneck 4.79362 -2.22119 5.27458
head 4.17649 -0.82166 1.64755
rclavicle 3.55328e-014 1.19271e-014
rhumerus -26.1574 7.86311 -88.6883
rradius 43.2716
rwrist 14.0606
rhand -4.79554 -5.20305
rfingers 7.12502
rthumb 20.9898 -34.0873
lclavicle 3.55328e-014 1.19271e-014
lhumerus -40.4396 30.7759 67.9497
lradius 34.3054
lwrist -221.19
lhand -14.0481 8.28245
lfingers 7.12502
lthumb 12.0827 37.9136
rfemur -177.043 -175.441 204.874
rtibia 44.4017
rfoot 153.392 161.744
rtoes 5.87809
lfemur -1.65919 5.31748 -20.1957
ltibia 48.4579
lfoot -23.8694 27.4999
ltoes 13.951
1245
root 3.48707 16.3359 -0.702068 -3.13312 -76.6515 -14.9064
lowerback 33.2157 1.59171 0.0930607
upperback 6.56865 1.60483 1.53181
thorax -9.79714 0.472866 1.01733
lowerneck -16.7818 -1.09372 -1.2836
upperneck 4.58832 -1.7315 5.22451
head 4.12691 -0.586875 1.68474
rclavicle -3.07371e-014 1.28216e-014
rhumerus -26.3534 7.59364 -88.4339
rradius 43.7612
rwrist 14.138
rhand -4.83429 -5.2343
rfingers 7.12502
rthumb 20.9526 -34.1226
lclavicle -3.07371e-014 1.28216e-014
lhumerus -40.1033 30.2545 68.3495
lradius 34.3495
lwrist -220.999
lhand -13.953 8.19545
lfingers 7.12502
lthumb 12.1744 37.8212
rfemur -177.465 -175.464 204.836
rtibia 45.1498
rfoot 153.249 161.407
rtoes 5.90778
lfemur -1.63965 5.01714 -20.4235
ltibia 48.3484
lfoot -23.6633 27.5935
ltoes 13.9986
1246
root 3.49002 16.3279 -0.713557 -4.05994 -76.2798 -13.9998
lowerback 33.5391 1.60347 -0.0392914
upperback 6.57345 1.57004 1.53129
thorax -9.92062 0.456469 1.09781
lowerneck -16.9639 -0.728389 -1.33756
upperneck 4.33101 -1.22007 5.15377
head 4.05772 -0.343213 1.71358
rclavicle 1.92324e-014 2.48481e-015
rhumerus -26.6182 7.34089 -88.1957
rradius 44.3371
rwrist 14.0825
rhand -4.86906 -5.27995
rfingers 7.12502
rthumb 20.9192 -34.172
lclavicle 1.92324e-014 2.48481e-015
lhumerus -39.6892 29.7296 68.7009
lradius 34.3006
lwrist -220.992
lhand -13.8774 8.1929
lfingers 7.12502
lthumb 12.2473 37.8143
rfemur -177.911 -175.509 204.795
rtibia 45.8887
rfoot 153.091 161.093
rtoes 5.95284
lfemur -1.65 4.66238 -20.6769
ltibia 48.2635
lfoot -23.4328 27.6538
ltoes 14.0647
1247
root 3.49361 16.3206 -0.725454 -5.02064 -75.8772 -13.0619
lowerback 33.9083 1.60456 -0.172737
upperback 6.55981 1.5219 1.53567
thorax -10.081 0.434308 1.18888
lowerneck -17.1073 -0.324756 -1.39694
upperneck 4.06416 -0.652165 5.0349
head 3.97718 -0.0748166 1.73251
rclavicle -2.69105e-014 4.67144e-015
rhumerus -26.9477 7.0996 -87.9543
rradius 44.9331
rwrist 13.9571
rhand -4.84961 -5.42565
rfingers 7.12502
rthumb 20.9379 -34.3156
lclavicle -2.69105e-014 4.67144e-015
lhumerus -39.287 29.3306 68.9765
lradius 34.2199
lwrist -221.285
lhand -13.9442 8.27477
lfingers 7.12502
lthumb 12.1829 37.9
rfemur -178.358 -175.594 204.752
rtibia 46.6075
rfoot 152.948 160.816
rtoes 5.87639
lfemur -1.66694 4.2796 -20.9512
ltibia 48.1896
lfoot -23.2082 27.6969
ltoes 13.9974
1248
root 3.49643 16.3149 -0.737662 -5.97708 -75.4572 -12.1155
lowerback 34.2651 1.60065 -0.277941
upperback 6.54886 1.47406 1.51967
thorax -10.2308 0.412113 1.24352
lowerneck -17.1122 0.194004 -1.19532
upperneck 3.70672 0.0373159 4.66582
head 3.84258 0.241097 1.6397
rclavicle 2.30839e-014 2.20651e-014
rhumerus -27.3029 6.8481 -87.7343
rradius 45.5294
rwrist 13.7712
rhand -4.81869 -5.58303
rfingers 7.12502
rthumb 20.9676 -34.4697
lclavicle 2.30839e-014 2.20651e-014
lhumerus -38.8629 28.9049 69.1872
lradius 34.0963
lwrist -221.719
lhand -14.0727 8.4281
lfingers 7.12502
lthumb 12.059 38.0606
rfemur -178.838 -175.73 204.711
rtibia 47.2996
rfoot 152.846 160.581
rtoes 5.84443
lfemur -1.67898 3.89679 -21.2385
ltibia 48.092
lfoot -22.934 27.7105
ltoes 13.9707
1249
root 3.4988 16.3116 -0.751192 -6.9428 -75.0015 -11.1686
lowerback 34.6411 1.58941 -0.378917
upperback 6.5413 1.41768 1.51005
thorax -10.3828 0.385805 1.30623
lowerneck -17.0038 0.845715 -0.760336
upperneck 3.33237 0.877186 4.01192
head 3.68647 0.618781 1.43061
rclavicle -4.35587e-014 -4.37326e-015
rhumerus -27.6603 6.63308 -87.5087
rradius 46.0874
rwrist 13.471
rhand -4.75787 -5.78565
rfingers 7.12502
rthumb 21.026 -34.6658
lclavicle -4.35587e-014 -4.37326e-015
lhumerus -38.3918 28.4156 69.4046
lradius 33.8845
lwrist -222.223
lhand -14.2119 8.61625
lfingers 7.12502
lthumb 11.9247 38.2566
rfemur -179.337 -175.93 204.679
rtibia 47.9547
rfoot 152.772 160.364
rtoes 5.8969
lfemur -1.6697 3.53783 -21.5233
ltibia 47.9536
lfoot -22.6244 27.6943
ltoes 14.0328
1250
root 3.49941 16.3144 -0.764022 -7.9684 -74.5161 -10.1299
lowerback 34.9879 1.57394 -0.483349
upperback 6.52745 1.3533 1.48156
thorax -10.5287 0.356968 1.35428
lowerneck -16.6961 1.56022 -0.227293
upperneck 2.5502 1.79903 3.14025
head 3.80665 1.0165 1.25433
rclavicle 3.72721e-014 -9.59136e-015
rhumerus -28.058 6.44039 -87.3013
rradius 46.6142
rwrist 13.1048
rhand -4.75302 -6.01345
rfingers 7.12502
rthumb 21.0307 -34.8931
lclavicle 3.72721e-014 -9.59136e-015
lhumerus -37.8762 27.9685 69.5644
lradius 33.6109
lwrist -222.879
lhand -14.363 8.89263
lfingers 7.12502
lthumb 11.7791 38.5414
rfemur -179.901 -176.215 204.626
rtibia 48.5567
rfoot 152.837 160.142
rtoes 6.35956
lfemur -1.64775 3.19269 -21.8416
ltibia 47.7613
lfoot -22.3407 27.6191
ltoes 13.9465
1251
root 3.49891 16.3199 -0.777943 -9.2289 -73.9985 -8.81887
lowerback 35.3849 1.5683 -0.641679
upperback 6.42932 1.27818 1.42113
thorax -10.667 0.325459 1.4067
lowerneck -16.4902 2.27564 0.313927
upperneck 2.23468 2.70539 2.36328
head 3.6492 1.42847 0.959912
rclavicle 6.34869e-015 2.5345e-015
rhumerus -28.4508 6.26756 -87.0851
rradius 47.0437
rwrist 12.6814
rhand -4.71917 -6.15214
rfingers 7.12502
rthumb 21.0632 -35.0282
lclavicle 6.34869e-015 2.5345e-015
lhumerus -37.3073 27.6709 69.6861
lradius 33.26
lwrist -223.716
lhand -14.5123 9.15171
lfingers 7.12502
lthumb 11.6351 38.8087
rfemur -180.518 -176.584 204.492
rtibia 49.0971
rfoot 152.904 160.092
rtoes 6.59141
lfemur -1.63671 2.88249 -22.2503
ltibia 47.531
lfoot -21.9938 27.5354
ltoes 14.029
1252
root 3.49919 16.3268 -0.791852 -10.1998 -73.4503 -7.83847
lowerback 35.7564 1.53523 -0.718163
upperback 6.41313 1.20035 1.39786
thorax -10.8226 0.290327 1.45091
lowerneck -16.3036 2.93907 0.690255
upperneck 1.92759 3.56542 1.68871
head 3.51013 1.82211 0.727495
rclavicle -3.81356e-014 3.39425e-014
rhumerus -28.8344 6.14688 -86.8524
rradius 47.4268
rwrist 12.1773
rhand -4.69811 -6.29995
rfingers 7.12502
rthumb 21.0834 -35.1737
lclavicle -3.81356e-014 3.39425e-014
lhumerus -36.72 27.5637 69.778
lradius 32.8925
lwrist -224.694
lhand -14.7129 9.4348
lfingers 7.12502
lthumb 11.4416 39.1026
rfemur -181.105 -177.115 204.493
rtibia 49.5462
rfoot 152.968 160.19
rtoes 6.40683
lfemur -1.58 2.60505 -22.5564
ltibia 47.2648
lfoot -21.6588 27.3663
ltoes 14.0715
